<?xml version="1.0" encoding="utf-8"?>
<!-- Generator: Adobe Illustrator 16.0.0, SVG Export Plug-In . SVG Version: 6.00 Build 0)  -->
<!DOCTYPE svg PUBLIC "-//W3C//DTD SVG 1.1//EN" "http://www.w3.org/Graphics/SVG/1.1/DTD/svg11.dtd">
<svg version="1.1" id="Layer_1" xmlns="http://www.w3.org/2000/svg" xmlns:xlink="http://www.w3.org/1999/xlink" x="0px" y="0px"
	 width="41px" height="20px" viewBox="0 0 41 20" enable-background="new 0 0 41 20" xml:space="preserve">
<symbol  id="svet" viewBox="-50 -24.256 100 48.511">
	<path fill="#BBBCBE" d="M42.75,19.144c-0.1-0.398-0.45-0.468-1.05-0.199c-0.5,0.231-0.884,0.217-1.15-0.051
		c0.367-0.101,0.65-0.268,0.851-0.5l0.052-0.051c0.03-0.065,0.083-0.148,0.147-0.25c0.033-0.1-0.033-0.116-0.199-0.05
		c-0.198,0.034-0.365-0.018-0.5-0.149c-0.334-0.468-0.768-0.648-1.301-0.551c-0.332,0.033-0.564-0.065-0.699-0.3
		c0.469-0.268,0.816-0.633,1.052-1.101c0-0.033,0.017-0.051,0.05-0.051c0.033-0.5,0.02-1.032-0.05-1.601H39.9
		c-0.467,0.101-0.853,0.3-1.15,0.601c-0.4,0.399-0.768,0.852-1.1,1.352c0.23,0.633,0.283,1.183,0.147,1.648
		c-0.03,0.102-0.083,0.102-0.147,0c-0.168-0.398-0.45-0.449-0.853-0.148c-0.231,0.133-0.383,0.148-0.448,0.05
		c-0.102-0.167-0.117-0.333-0.052-0.5c-0.231-0.399-0.614-0.5-1.147-0.3c-0.233,0.065-0.436,0.116-0.603,0.148
		c-0.731,0.066-1.216-0.134-1.448-0.601c-0.399-0.867-0.082-1.216,0.948-1.05c0.034,0,0.067,0,0.103,0
		c0.397-0.302,0.814-0.435,1.25-0.4c0.033,0,0.064,0,0.1,0c0.367-0.5,0.75-0.981,1.15-1.449c0.1-0.101,0.1-0.184,0-0.25l0.05-0.051
		c0.433-0.231,0.517-0.481,0.25-0.75c-0.067-0.032-0.15-0.05-0.25-0.05c-0.067,0-0.117,0.018-0.15,0.05
		c-0.233,0.468-0.483,0.917-0.75,1.352c0,0.032-0.017,0.051-0.05,0.051c-0.033-0.301-0.066-0.769-0.1-1.4
		c0-0.532-0.15-0.949-0.45-1.25c-0.367,0.033-0.634-0.032-0.8-0.199c-0.103-0.134-0.186-0.282-0.25-0.449c0-0.102,0-0.186,0-0.25
		c0-0.102,0.017-0.199,0.05-0.301c0-0.032,0.032-0.083,0.1-0.148V9.943l0.05-0.051c0.033-0.032,0.066-0.051,0.103-0.051
		c0.6-0.199,0.8-0.633,0.6-1.3c-0.03-0.033-0.063-0.065-0.1-0.102c-0.067-0.065-0.15-0.101-0.25-0.101c-0.4,0-0.687,0.25-0.853,0.75
		c-0.064,0.134-0.166,0.233-0.3,0.301c-0.3,0.102-0.5,0.3-0.6,0.602c-0.034,0.1-0.117,0.133-0.25,0.1
		c-0.067-0.032-0.15-0.083-0.25-0.148c-0.367,0.101-0.617,0.25-0.75,0.449l-0.101-0.1c-0.23-0.167-0.35-0.3-0.35-0.399
		c0.232-0.167,0.5-0.282,0.8-0.351c0.233,0,0.367-0.05,0.4-0.149c0.065,0,0.133-0.018,0.2-0.051c0.166-0.032,0.166-0.1,0-0.199
		c-0.033-0.032-0.084-0.064-0.15-0.101c-0.4-0.333-0.3-0.716,0.3-1.149c0.367-0.301,0.567-0.648,0.601-1.051
		c0-0.032,0.033-0.05,0.102-0.05c0.064-0.033,0.083-0.133,0.05-0.3c-0.063-0.867-0.313-1.567-0.75-2.102l-0.05-0.051
		c-0.867-0.366-1.717-0.731-2.55-1.1v0.05c-0.367,0.398-0.72,0.315-1.052-0.25c0-0.033,0-0.065,0-0.102
		c0.602-0.601,1.052-1.351,1.352-2.25c0.064-0.198,0.102-0.417,0.102-0.648c-0.399-0.367-0.783-0.731-1.149-1.102H29.4
		c-0.27,0.103-0.45,0.283-0.551,0.552c-0.033,0-0.052,0.018-0.052,0.05c-0.433,0.398-0.883,0.768-1.35,1.101
		c-0.167-0.968-0.019-1.684,0.448-2.147c0.033,0,0.052-0.019,0.052-0.051c0.231-0.134,0.448-0.283,0.647-0.449h0.051
		c0.269-0.568,0.332-1.135,0.199-1.701h-0.1c-0.066,0-0.117,0-0.15,0c0.066-0.1,0.117-0.199,0.15-0.299
		c0.066-0.135,0.15-0.234,0.25-0.301c0.6-0.5,0.783-1.134,0.55-1.9c-0.633-0.166-1.116,0.084-1.45,0.75
		c-0.166,0.334-0.367,0.65-0.6,0.951c-0.566,0.699-1.066,1.5-1.5,2.397c0.934-0.133,1.583-0.532,1.949-1.198H28v0.051
		c-0.232,0.397-0.383,0.883-0.45,1.449c-0.032,0-0.065,0.018-0.1,0.051c-0.267,0.199-0.483,0.449-0.65,0.75c0,0.031,0,0.065,0,0.1
		c0.167,0.934,0.034,1.768-0.399,2.499v0.051c-0.133,0.032-0.434-0.018-0.898-0.148c-0.102,0.633-0.333,1.148-0.7,1.55
		c-0.063,0.034-0.1,0.083-0.1,0.149c-0.269,0.532-0.617,0.717-1.052,0.551c-0.434,0.065-0.731-0.033-0.898-0.301
		c-0.533-0.769-1.133-1.468-1.8-2.102H20.9c0.133-1.133-0.117-1.98-0.75-2.55c-0.168-0.064-0.283-0.049-0.353,0.051
		c-0.231,0.199-0.417,0.449-0.55,0.749c-0.533,1.102-0.936,2.333-1.2,3.7v0.149c-0.063-0.066-0.364-0.102-0.897-0.102
		c-0.133,0.102-0.233,0.233-0.301,0.4l-0.052,0.25c-0.231,0.231-0.563,0.531-1,0.898v0.05c-1.1-0.167-2.063-0.083-2.897,0.25
		L12.8,5.243c0.101-0.5,0.435-0.833,1-1c0.034-0.067,0.034-0.15,0-0.25c-0.267-0.801-0.7-1.468-1.3-2c-0.033,0-0.066,0-0.1,0
		c-0.566-0.102-0.967-0.367-1.2-0.801c-0.3-0.102-0.583-0.218-0.851-0.352C10.049,0.709,9.732,0.625,9.4,0.592
		C8.8,0.526,8.6,0.326,8.8-0.007c0.435-0.301,0.95-0.283,1.55,0.05c0.4,0.232,0.686,0.217,0.853-0.05
		c0.1-0.067,0.114-0.185,0.05-0.352c-0.3-1.032-0.717-1.967-1.25-2.801H9.95C8.75-3.957,7.833-5.023,7.2-6.357
		c0-0.032,0-0.063,0-0.1c0.065-0.566,0.25-1.051,0.55-1.451c0-0.031,0-0.065,0-0.1c0.066-0.666,0.033-1.283-0.1-1.851v-0.051
		c-0.301-0.367-0.7-0.633-1.2-0.801v-0.049c-0.333-0.367-0.55-0.734-0.65-1.103c0-0.033,0.017-0.051,0.05-0.051
		c0.27-0.832,0.02-1.383-0.75-1.648c-0.133-0.063-0.166-0.18-0.1-0.346c0.033-0.133-0.018-0.301-0.15-0.5
		c-0.564-0.899-1.314-1.649-2.25-2.25c-0.033,0-0.064,0-0.1,0c-0.667-0.065-1.383-0.1-2.15-0.1H0.3c-0.2,0.967-0.566,1.75-1.1,2.35
		c-0.1,1.199-0.367,2.25-0.8,3.15c-0.467,1.065-0.383,2.082,0.25,3.049v0.051C-1.517-6.889-2-5.84-2.8-5.006c0,0.031,0,0.065,0,0.1
		c-0.067,0.566-0.017,1.15,0.15,1.75C-2.683-2.99-2.767-2.939-2.9-3.006L-3-3.057c0.033,0.2-0.017,0.352-0.15,0.45
		C-3.25-2.54-3.367-2.506-3.5-2.506c-0.133,0.033-0.3,0.033-0.5,0c-0.1,0.434-0.417,0.6-0.95,0.5c-0.4-0.066-0.783-0.133-1.15-0.199
		c-0.933-0.168-1.85-0.268-2.75-0.301H-8.9c-0.967,0.834-1.8,1.768-2.5,2.8h-0.05c0,0.435-0.033,0.867-0.1,1.3
		c0.466,0.533,0.517,1.233,0.15,2.102v0.051c0.633,1.333,1.433,2.467,2.4,3.398c0.067,0.066,0.117,0.134,0.15,0.199
		c0.067,0.033,0.067,0.134,0,0.301c0.467,0.333,0.9,0.732,1.3,1.199c0.066,0.032,0.15,0.05,0.25,0.05c0.066,0,0.117,0,0.15,0
		c0.633-0.301,1.3-0.231,2,0.199c0.233,0.134,0.5,0.167,0.8,0.102c0.467-0.066,0.883-0.019,1.25,0.148
		c0.533,0.269,0.817,0.15,0.85-0.35C-2.317,8.293-2,7.876-1.3,7.743c0.4-0.067,0.75-0.2,1.05-0.4c0.167-0.133,0.333-0.231,0.5-0.3
		c0.268,0.101,0.5,0.367,0.7,0.8H1c0.732-0.133,1.45-0.3,2.15-0.5c0.434-0.1,0.916-0.167,1.449-0.199
		c0.032,0,0.116,0.019,0.25,0.051c0.334,0,0.5,0.148,0.5,0.449C5.55,8.11,5.566,8.593,5.4,9.093L5.35,9.043
		c-0.166-0.065-0.23-0.25-0.199-0.55c0-0.033-0.018-0.051-0.051-0.051c-0.6-0.134-0.717,0-0.35,0.398c0.1,0.066,0,0.083-0.3,0.051
		C3.982,9.126,3.5,9.11,3,8.843c-0.033,0-0.066,0-0.1,0c0.064,0.301-0.051,0.634-0.353,1c-0.1,0.134-0.147,0.301-0.147,0.5
		c0,0.033,0,0.066,0,0.102c-0.033,0.064-0.084,0.116-0.15,0.148c-0.1,0-0.232-0.05-0.4-0.148c-0.3-0.134-0.367-0.45-0.199-0.95
		C1.684,9.36,1.632,9.261,1.501,9.193C1.27,9.093,1.118,9.127,1.051,9.294c-0.167,0.268-0.199,0.467-0.1,0.601H0.85
		c-0.397,0.167-0.6,0.532-0.6,1.102c-0.667,0.366-1.283,0.782-1.85,1.25l-0.05,0.05c0.267-0.7,0.85-1.232,1.75-1.601
		c0.033,0,0.066,0,0.1,0c-0.067-0.269-0.2-0.468-0.4-0.602c-0.066-0.032-0.133-0.083-0.2-0.148c-0.167-0.2-0.333-0.4-0.5-0.602
		c-0.167-0.2-0.4-0.185-0.7,0.05c-0.167,0.399,0.083,0.551,0.75,0.449c0.067-0.032,0.083,0.051,0.05,0.25
		c0,0.033-0.017,0.066-0.05,0.102c-0.7,0.434-1.316,0.949-1.85,1.551c-0.1,0.167-0.183,0.167-0.25,0
		c-0.533-0.2-1.017-0.317-1.45-0.352c-0.033,0-0.067,0-0.1,0c-0.1-0.434-0.317-0.75-0.65-0.949c-0.3-0.199-0.517-0.5-0.65-0.899
		c0-0.033-0.017-0.05-0.05-0.05c-0.8-0.533-1.633-0.602-2.5-0.2H-8.4c-0.133,0.867-0.067,1.685,0.2,2.45
		c0.034,0.065,0.117,0.083,0.25,0.05c1.267-0.367,1.917-0.117,1.95,0.75v0.05c-0.333,0.233-0.583,0.551-0.75,0.95
		c-0.033,0.066,0.033,0.083,0.2,0.05c0.333,0.066,0.683,0.134,1.05,0.2h0.05c0.567,0.633,1.267,1.101,2.1,1.399
		c0.4,0.134,0.5,0.5,0.3,1.101c0.3,0.399,0.533,0.417,0.7,0.05c0.133-0.267,0.2-0.25,0.2,0.051c0.033,0.066,0.033,0.167,0,0.301
		c-0.367,0.064-0.817,0.134-1.35,0.199c-0.2,0.066-0.3,0.269-0.3,0.602c0,0.032-0.017,0.065-0.05,0.1
		c0.1,0.602,0.45,0.95,1.05,1.051c0.2,0.066,0.367,0.167,0.5,0.301c0.466,0.434,0.9,0.898,1.3,1.398
		c1.1,0.533,2.268,0.634,3.5,0.301c0.533-0.167,1.133-0.282,1.8-0.351c0.667-0.065,1.017-0.351,1.05-0.851H5.4
		c0.033,0.032,0.064,0.064,0.1,0.101c0.333,0,0.518,0.167,0.55,0.5c0,0.034,0.05,0.034,0.15,0c0.2-0.065,0.366-0.167,0.5-0.3
		c0.5,0.467,1.1,0.633,1.8,0.5c0.1-0.033,0.25-0.033,0.45,0c0.433,0.1,0.917,0.133,1.45,0.1c0.199,0,0.434-0.032,0.699-0.1
		c0.334-0.067,0.418-0.019,0.25,0.148c-0.635,0.602-0.469,0.949,0.5,1.051c0.031,0,0.064,0,0.101,0
		c0.267-0.232,0.466-0.384,0.6-0.449h0.05c0.233,0.032,0.45,0.083,0.65,0.148c0.1,0.032,0.2,0.066,0.3,0.102
		c0.101,0.065,0.185,0.133,0.25,0.199c0.233,0.268,0.601,0.384,1.101,0.351c0.066,0.435,0.385,0.633,0.949,0.601
		c0.77-0.032,1.383,0.116,1.853,0.449c0.6-0.133,1.114-0.184,1.55-0.148c0.8,0.064,1.283-0.167,1.45-0.699
		c-0.47-0.269-0.386-0.384,0.25-0.352c0.3,0,0.614,0,0.948,0c0.867-0.032,1.867-0.051,3-0.051c0.367-0.167,0.719-0.366,1.052-0.6H26
		c0.5,0,1.066,0.017,1.7,0.05c0.032,0,0.065,0,0.1,0c0.333,0.435,0.917,0.566,1.75,0.399c0.534-0.102,1-0.232,1.4-0.399
		c0.2-0.101,0.433-0.149,0.7-0.149c1.033,0,2-0.083,2.897-0.25c0.034,0,0.136-0.018,0.302-0.051c0.633-0.1,1.101-0.116,1.398-0.05
		c0.564,0.101,1.167,0.066,1.8-0.101c1.302-0.301,2.552-0.533,3.75-0.699C42.268,19.676,42.583,19.477,42.75,19.144z M37.7,12.144
		c0.233-0.199,0.5-0.366,0.8-0.5c0.033-0.032,0.033-0.083,0-0.148c-0.033-0.102-0.1-0.185-0.2-0.25
		c-0.267-0.102-0.5-0.218-0.7-0.352c-0.1-0.064-0.082-0.101,0.051-0.101c0.302,0,0.519-0.101,0.649-0.3
		c0.233-0.602,0.3-1.233,0.2-1.9h-0.05c-0.5-0.133-0.917-0.315-1.25-0.55l-0.05,0.101c-0.033,0.066-0.103,0.102-0.2,0.102
		c0-0.468-0.185-0.7-0.55-0.7L36.35,7.394c-0.166-0.366-0.35-0.366-0.55,0c-0.032,0.102-0.1,0.199-0.2,0.301
		c-0.064,0.064-0.064,0.199,0,0.398c0.133,0.233,0.334,0.435,0.603,0.602c0.198,0.134,0.417,0.25,0.647,0.351
		c0.367,0.133,0.633,0.351,0.801,0.649c0,0.434-0.133,0.833-0.398,1.199c-0.27,0.333-0.383,0.686-0.352,1.051l0.052,0.199
		C37.117,12.443,37.367,12.443,37.7,12.144z M36.9,8.243c0,0.032-0.02,0.065-0.051,0.1c0-0.032,0-0.065,0-0.1H36.9z M33.4,4.644
		c0.5,0.566,0.684,0.468,0.55-0.301c-0.067-0.6-0.218-0.616-0.45-0.05C33.434,4.394,33.4,4.51,33.4,4.644z M33.8,1.894
		c0.233,0.833,0.517,0.917,0.851,0.25c0.166-0.268,0.199-0.518,0.102-0.75c-0.033-0.101-0.02-0.184,0.05-0.25
		c0.136-0.134,0.333-0.167,0.603-0.101c0.133-0.5-0.103-0.75-0.7-0.75L34.6,0.243c-0.033-0.067-0.117-0.102-0.25-0.102
		c-0.166,0.5-0.35,1.066-0.55,1.699V1.894z M35.2,0.043v-0.149c0-0.134,0.017-0.333,0.05-0.601c0.066-0.268,0.018-0.314-0.15-0.148
		c-0.23,0.269-0.397,0.565-0.5,0.898c0.367,0.232,0.617,0.268,0.75,0.101C35.383,0.11,35.333,0.076,35.2,0.043z M35.75-0.457
		c-0.2-0.268-0.316-0.148-0.35,0.351C35.6,0.494,35.834,0.477,36.1-0.157c0.065-0.133-0.018-0.217-0.25-0.25
		C35.816-0.407,35.783-0.424,35.75-0.457z M43.45-6.307c0.167-0.666,0.45-1.218,0.85-1.648c0.067-0.033,0.134-0.084,0.2-0.15v-0.051
		c0.033-0.031,0.066-0.065,0.1-0.1c0.066-0.066,0.033-0.082-0.1-0.051c-0.867,0.231-1.583,0.616-2.15,1.149
		c-0.033,0.033-0.064,0-0.1-0.1c-0.367-0.5-0.85-0.568-1.45-0.201c-0.167,0.133-0.35,0.25-0.55,0.352
		c-0.133,0.066-0.133,0.148,0,0.25c0.167,0.435-0.05,0.75-0.65,0.949c-0.367,0.133-0.717,0.316-1.05,0.551
		c-0.065,0.031-0.1,0.115-0.1,0.25c0,0.101-0.134,0.199-0.4,0.3C37.984-4.773,37.967-4.672,38-4.506
		c0.633,0.334,1.05,0.199,1.25-0.4c0.1-0.299,0.333-0.266,0.7,0.103c0.1,0.063,0.216,0.1,0.35,0.1
		c1.233-0.299,2.284-0.814,3.15-1.549V-6.307L43.45-6.307z M42.2-9.057c0.032-0.066,0.065-0.115,0.1-0.148
		C42.367-9.271,42.4-9.338,42.4-9.406c0.166-0.467,0.199-0.934,0.101-1.397v-0.052c0.565-0.731,1.083-1.518,1.55-2.35h0.051
		c-0.033-1.768-0.617-3.018-1.75-3.75c-0.101-0.066-0.199-0.133-0.301-0.201c-0.333-0.231-0.615-0.531-0.85-0.897
		c-0.5,0.032-0.9-0.117-1.2-0.449c-0.033,0-0.065,0-0.101,0c-0.301,0.133-0.633,0.199-1,0.199c-0.467,0-0.75,0.198-0.852,0.6
		c0.167,0.467,0.051,0.732-0.35,0.801c-0.034,0-0.051,0.033-0.051,0.101c0,0.066-0.149,0.116-0.449,0.149
		c-0.067,0-0.117,0.051-0.15,0.15c-0.064,0.1-0.133,0.199-0.199,0.299c-0.199,0.133-0.416,0.268-0.648,0.4H36.15
		c-0.967-0.134-1.866-0.316-2.699-0.552c-0.436-0.133-0.817-0.282-1.15-0.448c-0.564-0.302-1-0.302-1.3,0
		c-0.033,0.032-0.065,0.082-0.101,0.147c-0.065,0.066-0.116,0.168-0.149,0.301c0.435,0.5,0.601,1.25,0.5,2.25
		c-0.065,0.699-0.019,1.269,0.149,1.699c0.634,0.566,1.468,0.935,2.5,1.103l0.051,0.051c0.3,0.467,0.648,0.883,1.05,1.25
		c0.3,0.299,0.649,0.549,1.05,0.75c0.102,0.065,0.268,0.082,0.5,0.049c0.333-0.367,0.617-0.25,0.852,0.352l0.051,0.05
		c0.564,0.366,1.199,0.45,1.898,0.25c0.032,0,0.065,0,0.102,0c0.064-0.365,0.083-0.75,0.05-1.148c-0.032-0.066,0-0.133,0.101-0.201
		c0.232-0.199,0.5-0.365,0.801-0.5c0.268,0,0.468,0.187,0.601,0.551h0.05c0.034,0.636,0.168,1.15,0.4,1.552c0,0.032,0,0.063,0,0.1
		C41.85-8.34,42.1-8.623,42.2-9.057z M36.3-0.756c0.3-0.469,0.3-0.885,0-1.25c-0.466-0.234-0.815-0.103-1.05,0.397
		c-0.033,0.033-0.083,0.052-0.15,0.052c-0.166,0-0.217,0.116-0.147,0.35c0.5,0.133,0.933,0.316,1.3,0.551L36.3-0.756z M36.85-4.307
		c-0.133,0.032-0.184,0.184-0.147,0.45c0.03,0.5,0.216,0.634,0.55,0.398c0.1-0.063,0.148-0.116,0.148-0.147
		C37.3-3.807,37.184-4.039,37.05-4.307C37.05-4.34,36.982-4.34,36.85-4.307z M36.1-3.807c-0.033-0.101-0.064-0.199-0.1-0.3
		c-0.434-0.135-0.867-0.184-1.3-0.149h-0.05c0.033-0.269,0.184-0.332,0.449-0.199c0.467-0.066,0.481-0.283,0.051-0.65l0.05-0.147
		c0.167-0.635,0-0.818-0.5-0.551c-0.2,0.5-0.3,0.366-0.3-0.4c0-0.064-0.084-0.064-0.25,0c-0.168,0.066-0.27,0.217-0.301,0.451
		c-0.033,0.166-0.052,0.365-0.052,0.6c0.233,0.332,0.437,0.75,0.603,1.25c0.1,0.301,0.332,0.416,0.699,0.351
		c0.365-0.066,0.717-0.101,1.051-0.101L36.1-3.807z M36.95-5.156c0.933-0.065,1.032-0.184,0.3-0.35
		C37.018-5.574,36.917-5.457,36.95-5.156z M33.9-3.406c0.064-0.065,0.082-0.168,0.05-0.301c-0.333-0.6-0.667-1.215-1-1.85H32.9
		c-0.566,0-1.2,0.082-1.9,0.25v0.051c-0.268,0.397-0.4,0.916-0.4,1.549v0.051c0.633,0.232,1.168,0.582,1.603,1.051
		c0.231,0.232,0.448,0.468,0.647,0.699c0.301,0.332,0.603,0.316,0.9-0.051c0.232-0.332,0.25-0.75,0.05-1.25
		C33.768-3.24,33.8-3.307,33.9-3.406z M33.25-0.756c0.268,0.466,0.533,0.599,0.8,0.397c0.067-0.032,0.083-0.101,0.05-0.198
		c-0.199-0.5-0.467-0.617-0.8-0.353C33.268-0.873,33.25-0.824,33.25-0.756z M35.25-7.656c0.367,0.5,0.816,0.566,1.35,0.199
		c0.103-0.064,0.084-0.117-0.05-0.148c-0.366-0.065-0.733-0.168-1.1-0.301C35.25-8.006,35.184-7.924,35.25-7.656z M34.55-7.105
		c0.733-0.135,0.767-0.301,0.101-0.5c-0.168-0.032-0.314-0.135-0.448-0.301C34.166-7.939,34.1-7.924,34-7.855
		c-0.1,0.031-0.133,0.134-0.1,0.3c0.267-0.033,0.434,0.051,0.5,0.25c-0.033,0-0.051,0.018-0.051,0.051H34.4c0,0.033,0,0.084,0,0.149
		H34.55z M33-7.156c0.633,0.101,0.867,0.019,0.7-0.25c-0.067-0.133-0.218-0.199-0.45-0.199C33.018-7.574,32.934-7.424,33-7.156z
		 M32.75-7.156c-0.167-0.268-0.518-0.35-1.05-0.25c-0.667,0.166-1.333,0.301-2,0.4c-0.3,0.031-0.4,0.217-0.3,0.549
		c1.3,0.102,2.416-0.117,3.35-0.648V-7.156z M38.65-19.656c0.064,0.467,0.25,0.685,0.55,0.65c0.866-0.068,1-0.353,0.399-0.853
		C39.1-20.289,38.783-20.223,38.65-19.656z M48.65-18.256c0.064,0.065,0.117,0.133,0.147,0.199c0.034,0.063,0.052,0.133,0.052,0.198
		c0.031,0.302,0.115,0.634,0.25,1c0,0.033,0.018,0.033,0.051,0c0.166,0,0.23-0.1,0.199-0.301c-0.066-0.531,0.133-0.815,0.601-0.85
		c0.032,0,0.05-0.033,0.05-0.101c-0.033-0.168-0.1-0.283-0.2-0.352c-0.466-0.398-1.032-0.699-1.7-0.898
		c-0.133-0.033-0.184,0.049-0.147,0.25c0.167,0.365,0.383,0.648,0.647,0.851h0.051V-18.256L48.65-18.256z M44.2-21.156
		c0.2,0.633,0.75,1.066,1.649,1.301c0.365,0.101,0.668,0.281,0.898,0.55c0.333,0.301,0.667,0.366,1,0.2
		c-0.033-0.5-0.314-0.852-0.852-1.051c-0.5-0.231-0.918-0.518-1.25-0.85c-0.365-0.103-0.731-0.201-1.101-0.301l-0.05-0.052
		C44.268-21.457,44.167-21.389,44.2-21.156z M12.4,5.443c0,0.032,0,0.064,0,0.101H12.35v-0.05C12.35,5.46,12.367,5.443,12.4,5.443z
		 M12.15,5.093l0.05,0.102c-0.2,0.199-0.468,0.351-0.8,0.449c-0.2,0.066-0.316,0.167-0.353,0.301
		C10.75,6.509,10.367,6.727,9.9,6.593c0-0.032,0.017-0.065,0.05-0.1c0.267-0.4,0.466-0.75,0.6-1.051
		c0.167,0.134,0.3,0.101,0.4-0.102C10.982,5.311,11,5.276,11,5.243c0.2-0.634,0.518-0.733,0.95-0.301
		C12.018,4.977,12.083,5.026,12.15,5.093z M11.6,20.144v0.102h-0.05v-0.051C11.55,20.16,11.566,20.144,11.6,20.144z M29.95,3.043
		c0.667,0.2,0.866,0.083,0.6-0.351c-0.267-0.436-0.466-0.399-0.6,0.101C29.95,2.86,29.95,2.943,29.95,3.043z M0.85,17.093
		c0.367,0.134,0.783,0.2,1.25,0.2h0.15c-0.1,0.167-0.434,0.185-1,0.05c-0.033,0-0.066,0-0.1,0c-0.867,0.333-0.95,0.851-0.25,1.551
		c0,0.399-0.168,0.384-0.5-0.051c-0.033-0.065-0.1-0.116-0.2-0.148c-0.534-0.269-0.733-0.583-0.6-0.949c0.433-0.333,0.433-0.667,0-1
		c-0.167-0.134-0.333-0.301-0.5-0.5l-0.05-0.051C-0.983,16.126-1,16.076-1,16.043c-0.033,0-0.067,0-0.1,0
		c-0.2-0.167-0.45-0.3-0.75-0.399c0.233-0.064,0.45-0.101,0.65-0.101c0.167,0,0.333-0.018,0.5-0.05
		c0.233-0.033,0.434-0.019,0.6,0.05c0.033,0,0.067,0,0.1,0c0.333,0.167,0.5,0.5,0.5,1l0.65,0.05
		C0.717,16.626,0.617,16.793,0.85,17.093z M-7.5,23.543c-0.033-0.033-0.067-0.065-0.1-0.101c-0.6,0.032-1.017-0.116-1.25-0.449H-8.9
		c-0.133-0.733-0.517-1.185-1.15-1.352c-0.434-0.101-0.583-0.184-0.45-0.25c0.5-0.268,0.55-0.518,0.15-0.75c-0.033,0-0.066,0-0.1,0
		c-0.267-0.366-0.683-0.564-1.25-0.601c-0.433-0.033-0.783-0.05-1.05-0.05c-0.367-0.167-0.683-0.352-0.95-0.552
		c-0.033-0.032-0.05-0.065-0.05-0.101c-0.5-0.066-0.983-0.167-1.45-0.3h-0.05c-0.4-0.466-0.833-0.883-1.3-1.25
		c-0.034-0.033-0.067-0.065-0.1-0.102l-0.05-0.05c-0.066-0.033-0.117-0.064-0.15-0.101c-0.133-0.065-0.267-0.102-0.4-0.102
		c-0.433,0.135-0.75,0.367-0.95,0.7c-0.033,0.032-0.05,0.066-0.05,0.102c-0.267,1-0.033,1.683,0.7,2.05
		c0.033,0,0.05,0.018,0.05,0.05c0.133,0.167,0.2,0.333,0.2,0.5c0,0.134-0.034,0.25-0.1,0.351c-0.033,0.102-0.083,0.185-0.15,0.25
		c-0.1,0.102-0.167,0.2-0.2,0.302c-0.167,0.267-0.417,0.467-0.75,0.6c-0.667-0.1-1.183,0.033-1.55,0.4
		c-0.067,0.065-0.1,0.167-0.1,0.3c-0.1,0-0.184,0-0.25,0c-0.233-0.033-0.45-0.083-0.65-0.149l-0.05-0.051
		c-0.3-0.167-0.583-0.267-0.85-0.3c-0.433-0.2-0.8-0.45-1.1-0.75c-0.9,0.034-1.717,0.148-2.45,0.351
		c-0.033,0.032-0.05,0.102-0.05,0.199c0.4,0.233,0.883,0.301,1.45,0.2c-0.066,0.034,0,0.083,0.2,0.148
		c0.167,0.065,0.333,0.117,0.5,0.149c0.267,0,0.316,0.018,0.15,0.051c0.167,0.167,0.35,0.316,0.55,0.449
		c0.2,0.166,0.45,0.25,0.75,0.25c-0.033,0.001-0.05,0.019-0.05,0.051c-0.6,0.032-0.6,0.133,0,0.3h0.05
		c1.5,0.102,2.983,0.2,4.45,0.302v-0.052c-0.667-0.532-1.533-0.898-2.6-1.101c1.167,0.134,2.233,0.367,3.2,0.7
		c0.5,0.167,1.05,0.217,1.65,0.148c0.7-0.101,1.417-0.065,2.15,0.102c1.667,0.333,3.233,0.284,4.7-0.149
		c0.2-0.033,0.517-0.083,0.95-0.148C-7.35,23.743-7.367,23.676-7.5,23.543z M-8.5,19.144c-0.4-0.601-1.05-0.814-1.95-0.648
		c-0.267,0.032-0.417,0.183-0.45,0.449c0.6,0.434,1.367,0.551,2.3,0.351C-8.533,19.293-8.5,19.243-8.5,19.144z M-6.8,15.593
		c-0.034-0.5-0.233-0.866-0.6-1.1c-0.533-0.333-0.817-0.185-0.85,0.449c0.067,0.699,0.533,0.949,1.4,0.75
		C-6.817,15.693-6.8,15.66-6.8,15.593z M-6.75,16.543c0.3,0.3,0.6,0.268,0.9-0.101v-0.051c-0.1-0.231-0.033-0.468,0.2-0.699
		c0.2-0.167,0.383-0.366,0.55-0.602c0.033-0.032,0.083-0.083,0.15-0.148c0.2-0.134,0.2-0.25,0-0.352c-0.2-0.366-0.6-0.583-1.2-0.648
		c-0.333-0.033-0.6,0.018-0.8,0.148C-6.983,14.126-7,14.159-7,14.193c0.5,0.134,0.6,0.268,0.3,0.398
		c-0.133,0.033-0.15,0.102-0.05,0.2c0.333,0.3,0.417,0.518,0.25,0.648c-0.1,0.065-0.167,0.149-0.2,0.25
		C-6.8,15.993-6.817,16.276-6.75,16.543z M-1.35,8.843v0.15C-0.917,8.894-0.917,8.843-1.35,8.843z M-2.95,11.394
		c0.434,0.066,0.483-0.064,0.15-0.398c-0.133-0.102-0.184-0.067-0.15,0.1C-2.95,11.193-2.95,11.293-2.95,11.394z M-2.9,10.043
		c-0.167,0.133-0.233,0.367-0.2,0.7c0.567,0.133,0.684-0.117,0.35-0.75C-2.783,9.96-2.833,9.977-2.9,10.043z M-4.6,10.144
		c0.033-0.134-0.083-0.199-0.35-0.199H-5c-0.2-0.102-0.267-0.051-0.2,0.148C-4.9,10.46-4.7,10.477-4.6,10.144z M2.5,8.394
		C2,8.327,1.717,8.477,1.65,8.843c0.633,0.134,0.967,0,1-0.398L2.5,8.394z M5.25,5.943C5.283,5.876,5.3,5.826,5.3,5.793
		C5.4,5.593,5.518,5.394,5.65,5.192C6.05,4.593,6.35,3.876,6.55,3.043c0.034,0,0.05-0.018,0.05-0.05
		c0.334-0.468,0.633-0.968,0.9-1.5c0.232-0.102,0.417-0.233,0.55-0.4c0.2-0.267,0.333-0.35,0.4-0.25v0.051
		c-0.167,1-0.583,1.732-1.25,2.199c-0.167,0.7-0.468,1.25-0.9,1.65C6.066,5.01,5.9,5.326,5.8,5.693c-0.1,0.466-0.267,0.564-0.5,0.3
		C5.3,5.96,5.283,5.943,5.25,5.943z M8.7-9.057c-0.267,0.065-0.4,0.268-0.4,0.6C8.6-8.59,8.8-8.771,8.9-9.006
		C8.934-9.074,8.867-9.09,8.7-9.057z M10.65-8.707c0.332-0.934,0.267-1.814-0.2-2.648c-0.101-0.168-0.167-0.315-0.2-0.45
		c-0.167-0.533-0.383-1.019-0.65-1.449c-0.064-0.133-0.199-0.232-0.397-0.301c-0.769,0.032-1.067,0.518-0.9,1.45
		c0,0.031,0,0.066,0,0.101c0.367,0.434,0.567,1.051,0.603,1.85c0,0.103,0.05,0.185,0.147,0.25c0.603,0.234,1.019,0.617,1.25,1.15
		C10.4-8.557,10.518-8.539,10.65-8.707z M-3.55-3.855c-0.034,0-0.05,0.05-0.05,0.148C-3.167-3.906-3.15-3.957-3.55-3.855z
		 M28.6-3.707c0,0.035-0.017,0.051-0.05,0.051H28.5v-0.051C28.533-3.707,28.566-3.707,28.6-3.707z M28-3.307
		c0-0.033,0.018-0.05,0.05-0.05c0-0.032,0.017-0.051,0.05-0.051c0,0.033,0,0.066,0,0.101C28.066-3.307,28.033-3.307,28-3.307z
		 M21.2-1.957c-0.367,0-0.517,0.25-0.45,0.75c0.033,0.133,0.05,0.268,0.05,0.4c0.5,0.166,0.718-0.187,0.65-1.052
		C21.417-1.957,21.333-1.99,21.2-1.957z M-23.3,23.293c-0.4-0.3-0.833-0.3-1.3,0c-0.033,0.034-0.05,0.083-0.05,0.149
		c0.533,0.398,1,0.398,1.4,0C-23.117,23.343-23.133,23.293-23.3,23.293z M-23.7,21.693c0.267-0.301,0.633-0.417,1.1-0.352
		c0.033,0.033,0.067,0.051,0.1,0.051c0.2-0.333,0.517-0.551,0.95-0.648c0.033,0,0.066,0,0.1,0c0.1-0.5,0.317-0.9,0.65-1.2
		c0.033-0.065,0.033-0.133,0-0.2c-0.067-0.133-0.15-0.231-0.25-0.3c-0.6,0.232-0.883,0.2-0.85-0.101
		c0.033-0.436-0.1-0.718-0.4-0.852c-0.034,0-0.067-0.017-0.1-0.05c0-0.033-0.033-0.05-0.1-0.05c-0.8,0.065-1.367,0.315-1.7,0.75
		h-0.15c-0.167-0.033-0.35-0.033-0.55,0c-0.2,0.433,0.066,0.6,0.8,0.5c0.167-0.033,0.317,0.017,0.45,0.148
		c0.2,0.199,0.45,0.25,0.75,0.149c0.2,0,0.167,0.148-0.1,0.45c-0.167,0.167-0.35,0.333-0.55,0.5c-0.333,0.031-0.817,0.031-1.45,0
		c-0.333,0-0.683,0.083-1.05,0.25c-0.1,0.065-0.117,0.198-0.05,0.398c0.533,0.566,1.3,0.75,2.3,0.55
		C-23.767,21.693-23.733,21.693-23.7,21.693z M-27.2,21.443c0,0.064-0.05,0.051-0.15-0.051c-0.033-0.231,0.1-0.384,0.4-0.449v-0.149
		c-0.033-0.268,0.117-0.482,0.45-0.649c0.033,0,0.067-0.032,0.1-0.101c0.033-0.101,0.167-0.033,0.4,0.2
		c0.067,0.1,0.133,0.183,0.2,0.25c1.033-0.033,1.183-0.352,0.45-0.95h-0.05c-0.567-0.133-0.934-0.25-1.1-0.351l0.15-0.051
		c0.2-0.032,0.35-0.116,0.45-0.25c-0.033-0.5-0.333-0.667-0.9-0.5c-0.034,0.032-0.133,0.066-0.3,0.102
		c-0.2,0.1-0.316,0.148-0.35,0.148c-0.066,0.066-0.133,0.102-0.2,0.102c-1.3-0.301-2.283-0.9-2.95-1.801h0.05
		c0.3-0.436,0.733-0.718,1.3-0.852c0.367-0.1,0.617-0.282,0.75-0.55c0.033-0.102,0.033-0.216,0-0.352
		c-0.067-0.065-0.1-0.148-0.1-0.25c0.267-0.5,0.5-0.417,0.7,0.25c0.066,0.232,0.183,0.385,0.35,0.45
		c0.7,0.133,1.066,0.602,1.1,1.399v0.05c0.3,0.5,0.733,0.884,1.3,1.15h0.05c1,0,1.5-0.385,1.5-1.15c0-0.167,0.1-0.184,0.3-0.05
		c0.333,0.367,0.667,0.467,1,0.3l0.05-0.05c-0.1-0.935,0.15-1.5,0.75-1.7c0.133-0.032,0.2-0.083,0.2-0.149
		c0.233-0.467,0.117-0.8-0.35-1l-0.05-0.3c0-0.101,0.05-0.184,0.15-0.25c0.533-0.2,0.65-0.417,0.35-0.648h-0.05
		c-0.033-0.033-0.067-0.052-0.1-0.052c-0.3-0.167-0.667-0.185-1.1-0.05c-0.066,0-0.183-0.018-0.35-0.051
		c-0.167,0.268-0.034,0.518,0.4,0.75c0.133,0.066,0.2,0.184,0.2,0.351c-0.867-0.133-1.733-0.268-2.6-0.398
		c-0.1-0.033-0.117-0.05-0.05-0.05c0.1,0,0.184,0,0.25,0c0.434-0.2,0.434-0.483,0-0.852c-0.033-0.033-0.017-0.083,0.05-0.148
		c0.2-0.167,0.483-0.219,0.85-0.15c0.133-0.3-0.1-0.532-0.7-0.699c-0.3-0.101-0.633-0.167-1-0.199c-0.133,0-0.184,0.083-0.15,0.25
		c-0.1,0.134-0.383,0.083-0.85-0.149c-0.367-0.167-0.617-0.434-0.75-0.8c-0.9-0.333-1.684-0.783-2.35-1.352
		c-0.033,0-0.05-0.167-0.05-0.5c0-0.167-0.017-0.333-0.05-0.5c-0.8-0.434-1.517-0.968-2.15-1.601v-0.05
		c0.133-0.802,0.05-1.469-0.25-2c-0.033-0.033-0.067-0.052-0.1-0.052c-0.367,0.333-0.583,0.852-0.65,1.552
		c0,0.1-0.1,0.148-0.3,0.148c-0.633,0.333-1.133,0.316-1.5-0.051c-0.167-0.167-0.383-0.199-0.65-0.1
		c-0.1,0.065-0.216,0.115-0.35,0.148c-0.5-0.101-1-0.333-1.5-0.7c-0.034,0-0.067,0-0.1,0c-0.567-1.032-0.617-2.032-0.15-3v-0.05
		c0.533-0.301,0.966-0.314,1.3-0.051v0.051c0.067,0.133,0.167,0.25,0.3,0.352c0.034,0.065,0.067,0.148,0.1,0.25l0.05,0.05
		c0.4,0.3,0.8,0.315,1.2,0.05V3.54c-0.267-0.7-0.433-1.315-0.5-1.852h0.1c0.067,0,0.133,0,0.2,0c0.633,0.232,1,0.065,1.1-0.5
		c0-0.032,0-0.065,0-0.101c-0.233-0.6-0.233-1.1,0-1.5c0-0.032,0-0.066,0-0.099c0.333-0.168,0.767-0.283,1.3-0.353
		c-0.033,0.066,0.017,0.084,0.15,0.051c0.067,0,0.117,0,0.15,0c0.067-0.032,0.117-0.065,0.15-0.102
		c0.067,0.033,0.15,0.066,0.25,0.102c0.067,0,0.133,0.052,0.2,0.148c0.333,0.468,0.783,0.816,1.35,1.051c0.033,0,0.066,0,0.1,0
		l0.4-0.101c0.2,0.034,0.4-0.019,0.6-0.149c0.133-0.064,0.25-0.134,0.35-0.2c0.1-0.032,0.184-0.065,0.25-0.101
		c0.434-0.167,0.934-0.184,1.5-0.05c0.133,0.034,0.267,0.101,0.4,0.2c0.167,0.167,0.3,0.133,0.4-0.102
		c-0.4-0.398-0.3-0.767,0.3-1.101c0.033,0,0.067-0.033,0.1-0.101c0.133-0.198,0.3-0.366,0.5-0.5c0.567-0.102,1.1-0.217,1.6-0.352
		c0.033-0.031,0.066-0.049,0.1-0.049c0.466-0.468,0.716-1.084,0.75-1.853h0.15c0.233-0.268,0.566-0.416,1-0.449
		c0.167,0,0.35-0.051,0.55-0.149c0.1-0.066,0.15-0.185,0.15-0.351v-0.051l0.05,0.051c1,0.033,1.733-0.184,2.2-0.649
		c0.167-0.199,0.417-0.299,0.75-0.299c0.233-0.168,0.35-0.435,0.35-0.802c0-0.032,0-0.065,0-0.1c-0.3-0.867-0.717-1.602-1.25-2.201
		c-0.033,0-0.05-0.018-0.05-0.049c0.033-1.231-0.184-2.334-0.65-3.301h-0.05c-0.3-0.199-0.65-0.353-1.05-0.449
		c-0.367-0.066-0.667-0.231-0.9-0.5c-0.1-0.301-0.2-0.701-0.3-1.201c-0.133-0.533-0.3-1.049-0.5-1.549
		c-0.2-0.4-0.517-0.668-0.95-0.801c-0.233-0.033-0.4,0-0.5,0.1c-0.1-0.1-0.117-0.283-0.05-0.549c0.033,0,0.05-0.018,0.05-0.051
		v-0.103c0.133-0.299,0.1-0.516-0.1-0.647c-0.2-0.133-0.467-0.199-0.8-0.199c-0.233-0.066-0.383-0.334-0.45-0.801
		c0-0.066-0.083-0.084-0.25-0.051c-0.1,0.032-0.167,0.032-0.2,0c0.033-0.064,0.067-0.148,0.1-0.25v-0.052
		c0.267-0.198,0.25-0.53-0.05-1c-0.167-0.266-0.067-0.565,0.3-0.897c-0.1-0.533-0.133-1.019-0.1-1.449c0-0.033,0-0.066,0-0.102
		c0.267-0.269,0.6-0.482,1-0.648c0.434-0.168,0.567-0.334,0.4-0.5c-0.033-0.033-0.083-0.051-0.15-0.051
		c-0.9-0.232-1.45,0-1.65,0.699c0,0.032-0.017,0.051-0.05,0.051c-0.7,0.063-1.2,0.383-1.5,0.949h-0.05
		c-0.167,0.602-0.417,1.116-0.75,1.551c-0.033,0-0.05,0.018-0.05,0.051c0.367,0.332,0.35,0.769-0.05,1.299
		c-0.133,0.133-0.25,0.269-0.35,0.4c-0.267,0.867-0.4,1.832-0.4,2.897c-0.033,0.636-0.066,1.269-0.1,1.9
		c-0.034,1.033-0.083,2.033-0.15,3c-0.466,0.668-1.1,1.168-1.9,1.5c-0.033,0-0.066,0-0.1,0c-0.7,1.334-1.417,2.633-2.15,3.9v0.049
		c0.167,0.469,0.217,0.951,0.15,1.451c0,0.032,0,0.065,0,0.1c0.333,0.6,0.7,1.168,1.1,1.699v0.051
		c0.067,0.633-0.117,1.15-0.55,1.551l-0.1-0.102c-0.267-0.398-0.65-0.435-1.15-0.101c-0.667,0.435-1.133,1.032-1.4,1.801
		c-0.867,0.133-1.534,0.481-2,1.05c0,0.033,0,0.064,0,0.101c-1.1-0.2-2.034,0-2.8,0.602c-0.3,0.198-0.55,0.417-0.75,0.648
		c0.133,0.966-0.117,1.667-0.75,2.102h-0.05c-0.267,0.768-0.567,1.481-0.9,2.148l-0.05,0.05c0.1-0.731,0.317-1.5,0.65-2.3
		c0.067-0.167,0.1-0.367,0.1-0.601c0-0.102-0.066-0.133-0.2-0.102c-0.367,0.233-0.65,0.602-0.85,1.102
		c-0.067,0.134-0.133,0.283-0.2,0.45c-0.033,0.768-0.167,1.481-0.4,2.148c0,0.033,0,0.065,0,0.102
		c-0.667,0.5-0.917,1.315-0.75,2.448c0,0.033,0,0.067,0,0.102c0.467,0.801,0.983,1.518,1.55,2.148
		c0.034,0.033,0.083,0.083,0.15,0.15c0.066,0.1,0.15,0.184,0.25,0.25c0.033,0.032,0.066,0.066,0.1,0.1
		c0.1,0.102,0.184,0.135,0.25,0.102c0.067-0.032,0.1-0.032,0.1,0l0.05,0.051c-0.633-0.066-0.967,0.184-1,0.75v0.05
		c0.4,0.167,0.583,0.602,0.55,1.3c0,0.067,0.017,0.185,0.05,0.352c0.067,0.367-0.15,0.5-0.65,0.398c0.033,0.5,0.25,0.602,0.65,0.302
		L-42,16.58c-0.033,0.064-0.083,0.101-0.15,0.101c-0.333,0.2-0.65,0.399-0.95,0.602v0.05c-0.467,0-0.85,0.083-1.15,0.25h-0.05
		c-1-0.133-1.867-0.366-2.6-0.699h-0.05c0.2-0.367-0.017-0.551-0.65-0.551c-0.133,0-0.233,0.051-0.3,0.148v-0.05
		c-0.567-0.3-1.267-0.434-2.1-0.398v0.101c0.667,0.199,1.15,0.449,1.45,0.75c-0.5,0.199-0.5,0.5,0,0.899
		c0.033,0.031,0.083,0.083,0.15,0.148c0.2,0.399,0.633,0.602,1.3,0.602c0.5,0.133,0.4,0.3-0.3,0.5
		c-0.167,0.065-0.183,0.148-0.05,0.25c0.033,0.031,0.067,0.05,0.1,0.05c0.567,0.101,1.067,0.184,1.5,0.25
		c0.133,0.033,0.133,0.167,0,0.398c0.333,0.302,0.783,0.519,1.35,0.65c2.067,0.5,4.133,0.435,6.2-0.2c0.333-0.101,0.633-0.101,0.9,0
		c0.9,0.269,1.867,0.315,2.9,0.149c0.6-0.066,1.067-0.25,1.4-0.55v-0.052c0.467-0.031,0.75,0,0.85,0.102c-0.6,0-0.85,0.167-0.75,0.5
		c0.033,0.033,0.1,0.051,0.2,0.051c0.533,0,0.617,0.032,0.25,0.1c-0.534,0-0.65,0.102-0.35,0.302L-33,20.98
		c-0.333-0.1-0.75-0.133-1.25-0.1c0,0.435,0.233,0.732,0.7,0.899c0.9,0.365,1.683,0.282,2.35-0.25c0.534-0.033,0.934,0,1.2,0.101
		c0.367,0.133,0.533,0.018,0.5-0.351c-0.033-0.102-0.017-0.218,0.05-0.352c0.034-0.034,0.067-0.083,0.1-0.148
		c-0.033-0.468-0.4-0.7-1.1-0.7c0.067-0.032,0.15-0.05,0.25-0.05c0.133,0,0.267-0.019,0.4-0.052c0.066,0,0.117-0.017,0.15-0.05
		c0.3,0,0.566,0.019,0.8,0.05L-29,20.037c-0.067,0.033-0.1,0.101-0.1,0.199c0.233,0.333,0.55,0.482,0.95,0.449h0.05
		c0.333,0.167,0.25,0.301-0.25,0.399c-0.033,0-0.066,0.018-0.1,0.051c-0.433,0.232-0.367,0.417,0.2,0.55
		c0.233,0.033,0.467,0.083,0.7,0.149c0.3-0.133,0.617-0.149,0.95-0.05c0.533,0.199,0.767,0.083,0.7-0.352
		c-0.434-0.167-0.85-0.185-1.25-0.05L-27.2,21.443z M-27.8,20.993h0.05v0.05h-0.05V20.993z M-28.05,20.394c0,0.032,0,0.066,0,0.102
		c-0.034,0-0.067,0-0.1,0c0-0.033,0-0.067,0-0.102C-28.117,20.394-28.083,20.394-28.05,20.394z M-28.55,2.593
		c0-0.032-0.017-0.05-0.05-0.05c-0.733-0.333-1.4-0.3-2,0.101l-0.05,0.051c0.467-0.066,0.767,0.051,0.9,0.351
		c0,0.034,0.05,0.066,0.15,0.101C-28.8,3.21-28.45,3.026-28.55,2.593z M-27.75,2.293c-0.367-0.101-0.517,0.034-0.45,0.399
		c0.667,0.032,0.883-0.102,0.65-0.399H-27.75z M-26.2,2.394c0.4-0.167,0.417-0.218,0.05-0.148C-26.183,2.276-26.2,2.326-26.2,2.394z
		 M-26.35,2.193c-0.267-0.436-0.467-0.417-0.6,0.051c0.2-0.033,0.417-0.019,0.65,0.05L-26.35,2.193z M-26.45,1.894
		c0.534,0.032,0.784-0.199,0.75-0.699c0-0.134-0.033-0.232-0.1-0.301c-0.133-0.231-0.284-0.449-0.45-0.648
		c-0.167-0.233-0.167-0.2,0,0.1c0,0.033-0.017,0.102-0.05,0.2c0.4,0.5,0.367,0.935-0.1,1.3L-26.45,1.894z M-27,2.693
		c0.4-0.167,0.433-0.25,0.1-0.25C-27,2.443-27.033,2.526-27,2.693z M-30.65,20.144h0.05c0,0.032-0.017,0.066-0.05,0.102
		C-30.65,20.21-30.65,20.176-30.65,20.144z M-42.55,16.043c0.5,0,0.6-0.083,0.3-0.25c-0.067-0.033-0.15-0.066-0.25-0.101
		c-0.033,0-0.05,0.064-0.05,0.199C-42.55,15.96-42.55,16.01-42.55,16.043z M-30.95,5.693c0.333-0.102,0.367-0.301,0.1-0.602
		c-0.167-0.133-0.333-0.25-0.5-0.35c-0.1-0.033-0.167,0-0.2,0.1c-0.034,0.102-0.05,0.218-0.05,0.352
		c0.067,0.101,0.167,0.217,0.3,0.351h-0.05v0.05h0.05c0.033,0.033,0.05,0.066,0.05,0.102C-31.183,5.76-31.083,5.76-30.95,5.693z
		 M-30.55,4.894c0.333-0.199,0.35-0.25,0.05-0.148C-30.533,4.743-30.55,4.793-30.55,4.894z M-30.55,4.493
		c0.433-0.102,0.433-0.15,0-0.15V4.493z M-31.5,4.043c0.2-0.101,0.383-0.184,0.55-0.25c0.2-0.101,0.383-0.184,0.55-0.25
		c0.333-0.167,0.333-0.333,0-0.5c-0.767-0.033-1.35,0.133-1.75,0.5c-0.333,0.3-0.733,0.45-1.2,0.45h-0.05
		c-0.067,0-0.133-0.019-0.2-0.051v0.148c0.633,0.301,1.317,0.283,2.05-0.05L-31.5,4.043L-31.5,4.043z M-30.45,3.943
		c0.5,0.064,0.567,0,0.2-0.199C-30.45,3.644-30.517,3.71-30.45,3.943z M-31.85,2.693c0.733,0.032,0.9-0.051,0.5-0.25
		C-31.717,2.276-31.883,2.36-31.85,2.693z"/>
</symbol>
<use xlink:href="#svet"  width="100" height="48.511" id="XMLID_1_" x="-50" y="-24.256" transform="matrix(0.41 0 0 -0.4072 20.5 10.0195)" overflow="visible"/>
</svg>
