<svg width="130" height="130" viewBox="0 0 130 130" fill="none" xmlns="http://www.w3.org/2000/svg">
<g clip-path="url(#clip0_1198_747)">
<path d="M51.6017 5.62683C51.3699 6.64408 51.5855 7.63208 52.2528 8.57567C53.5257 10.3664 56.0737 11.5137 57.9349 11.7087C58.3422 11.7531 58.7474 11.778 59.1287 11.778C62.4762 11.778 64.0514 10.1573 64.6917 9.19425C65.0622 8.632 65.3124 8.00908 65.4186 7.40892C64.4902 8.112 63.1533 8.49117 61.5023 8.49117C60.7386 8.49117 59.9304 8.40667 59.1807 8.2485C57.6327 7.92133 56.2243 6.90083 55.5852 5.64092C55.0836 4.63558 55.0717 3.54467 55.5592 2.48733C55.9871 1.56433 56.7898 0.683583 57.8157 0C57.3098 0.184167 56.818 0.37375 56.35 0.580667C53.8702 1.64883 52.0892 3.53817 51.6017 5.62683Z" fill="#4D4B4E"/>
<path d="M41.0927 16.638C41.617 18.8632 43.6342 20.8922 45.4022 21.9127C47.5017 23.1207 49.9413 23.9613 52.2543 24.2896C53.5283 24.4597 54.9355 24.5062 56.3536 24.4055C60.2839 24.1444 63.4852 23.1109 65.8858 21.3472C66.5499 20.8543 67.5043 20.0765 68.2616 19.1643C70.9255 15.9154 72.3393 10.9754 69.0936 7.78392C69.0763 7.75683 69.047 7.733 69.0145 7.707C69.0264 7.83483 69.0405 7.92258 69.0524 8.00925C69.0806 8.227 69.112 8.45017 69.0806 8.89217C68.6852 15.0217 60.2016 17.8773 54.5975 17.8773H54.5932C54.3083 17.8773 54.0277 17.8741 53.7568 17.8611C51.7592 17.7332 49.7756 17.184 48.3304 16.3444C45.5408 14.7216 43.4619 11.0209 44.2723 7.65283C42.0113 10.1813 40.4329 13.7639 41.0927 16.638Z" fill="#4D4B4E"/>
<path d="M53.2631 42.4015C58.0351 42.3928 63.1236 40.9336 67.9671 38.1797C71.0806 36.4117 73.8399 34.1725 76.1582 31.5346C80.6205 26.4451 82.2476 19.1651 80.2998 12.9792C79.6249 10.8472 78.5318 8.93515 77.0455 7.27223C75.9177 6.00473 74.5896 4.92898 73.1552 4.08398C73.6113 4.48265 74.0457 4.92682 74.4455 5.4089C75.1876 6.31023 75.8549 7.34698 76.3716 8.42057C76.9415 9.59273 77.338 11.1787 77.4387 12.7615C77.7453 17.2942 75.9296 22.1583 72.5876 25.7788C70.8943 27.6086 68.8414 29.2054 66.4851 30.5227C65.4711 31.0882 64.377 31.6104 63.2427 32.0762C58.0958 34.1714 52.7571 34.7987 48.3166 33.8182C46.9548 33.516 45.6299 33.0382 44.4924 32.4359C41.6248 30.9214 39.4527 28.6442 38.3423 26.0724C38.2979 27.0712 38.3196 28.1134 38.4181 29.1913C38.6001 31.2583 38.9739 33.9092 40.236 36.0358C42.0657 39.1482 45.6559 41.3658 50.0651 42.1231C51.143 42.3051 52.2079 42.4004 53.2273 42.4004" fill="#4D4B4E"/>
<path d="M70.5682 52.0399C72.606 51.6033 74.9146 50.7605 77.4452 49.5201C81.4698 47.5528 84.8682 44.3548 87.5484 40.0258C88.4877 38.5134 89.3088 36.792 89.9242 35.0489C92.1948 28.7006 92.1612 21.5094 89.8505 15.8241C88.323 12.0541 86.3957 8.94492 83.9723 6.33301C84.8975 7.53659 85.7642 8.95792 86.607 10.6447C88.3057 14.0669 89.1799 18.2042 89.1409 22.6123C89.1247 24.6381 88.8137 26.8503 88.2569 29.0223C87.0295 33.7403 84.306 38.2253 80.146 42.343C78.7572 43.7286 77.1441 45.0535 75.3642 46.295C70.7448 49.4887 65.3076 51.1787 59.6331 51.1787C57.4707 51.1787 55.3127 50.9284 53.2013 50.4388C53.0551 50.3976 52.898 50.3694 52.7539 50.3304C55.472 51.6543 58.3753 52.4808 61.3122 52.743C64.1603 52.9933 67.1872 52.7668 70.5682 52.0399Z" fill="#4D4B4E"/>
<path d="M14.468 86.6137C8.53025 85.4004 2.81675 84.0451 2.872 78.5797C2.872 74.0427 7.24217 71.0516 12.7163 71.0516C19.1708 71.0516 21.2876 74.5313 22.0622 77.2375L23.9623 77.8051C23.022 72.1718 17.8935 69.7896 12.8398 69.7896C6.59975 69.7896 0.949083 73.0634 1.12133 78.8116C1.12133 85.3072 8.64075 86.7535 12.4281 87.5021C16.5621 88.3904 23.4402 89.6947 23.4402 96.0539C23.4402 101.01 18.0192 104.281 12.6014 104.281C9.38608 104.281 3.38442 102.921 2.05625 96.809L0.1875 96.198C0.774667 102.738 7.47617 105.543 12.6621 105.543C19.0733 105.543 25.1887 101.575 25.1887 95.8676C25.1887 88.3471 16.5632 87.0763 14.468 86.6137Z" fill="#4D4B4E"/>
<path d="M12.6606 105.648C7.94267 105.648 0.698417 103.134 0.0765833 96.2045L0.0625 96.0398L2.14683 96.7234L2.16092 96.7852C3.345 102.237 8.52442 104.171 12.5999 104.171C17.7609 104.171 23.3303 101.069 23.3303 96.0539C23.3303 89.9439 16.9484 88.5822 12.7234 87.6808L12.3302 87.5963C8.37383 86.812 1.0115 85.3538 1.0115 78.8127C0.947583 76.6677 1.70483 74.7166 3.19983 73.1761C5.35567 70.9553 8.86783 69.6802 12.8383 69.6802C17.6136 69.6802 23.0714 71.8111 24.0681 77.7878L24.0963 77.9601L21.9708 77.3231L21.9534 77.2657C20.7943 73.2151 17.6851 71.1578 12.7137 71.1578C7.07167 71.1578 2.97883 74.2789 2.97883 78.5787C2.92467 83.7332 7.934 85.1664 14.4871 86.5043C14.6203 86.5325 14.7763 86.5661 14.9529 86.6018C17.5118 87.1251 25.2955 88.7241 25.2955 95.8643C25.2966 101.909 18.737 105.648 12.6606 105.648ZM0.311667 96.3508C1.02017 103.009 8.06183 105.428 12.6606 105.428C18.6319 105.428 25.0778 101.774 25.0778 95.8654C25.0778 88.9028 17.6916 87.3883 14.9107 86.8163C14.7319 86.7806 14.5748 86.7481 14.4427 86.7178C8.9415 85.5965 2.70042 84.3225 2.76108 78.5765C2.76108 74.1543 6.94817 70.9412 12.7148 70.9412C17.7707 70.9412 20.9448 73.0298 22.1495 77.1487L23.8222 77.6492C22.7713 71.9389 17.4782 69.8979 12.8383 69.8979C8.92633 69.8979 5.4705 71.1459 3.35692 73.3256C1.90308 74.8238 1.1675 76.7197 1.23033 78.8083C1.23033 85.1751 8.47783 86.6105 12.3713 87.3818L12.7689 87.4642C17.0611 88.3828 23.5481 89.7695 23.5481 96.0539C23.5481 101.203 17.8649 104.389 12.5999 104.389C8.45942 104.389 3.19875 102.424 1.96158 96.8924L0.311667 96.3508Z" fill="#4D4B4E"/>
<path d="M93.7201 70.3496H91.9727V104.937H93.7201V70.3496Z" fill="#4D4B4E"/>
<path d="M93.8274 105.044H91.8633V70.2388H93.8274V105.044ZM92.081 104.825H93.6107V70.4565H92.081V104.825Z" fill="#4D4B4E"/>
<path d="M112.014 70.3496C118.718 70.3496 121.398 70.8187 123.496 71.8034C126.994 73.2042 129.728 76.9872 129.728 81.0031C129.966 85.3094 126.417 91.8039 117.029 91.8494L115.334 91.8993L126.935 104.937H124.724L112.078 90.635H114.755C118.835 90.635 121.458 90.3555 124.311 88.4413C127.053 86.1522 127.981 83.7656 127.981 81.0551C127.981 78.0673 126.179 74.7458 122.855 73.0211C120.233 71.6626 117.089 71.6204 112.015 71.6204H103.917V104.939H102.172V70.3496H112.014Z" fill="#4D4B4E"/>
<path d="M127.177 105.044H124.673L124.64 105.007L111.835 90.5242H114.755C118.992 90.5242 121.496 90.197 124.251 88.3489C126.753 86.258 127.872 84.0069 127.872 81.0537C127.872 77.8264 125.882 74.7119 122.804 73.115C120.248 71.7923 117.195 71.7284 112.015 71.7284H104.026V105.046H102.062V70.2388H112.015C119.05 70.2388 121.568 70.7761 123.543 71.7056C127.188 73.1616 129.838 77.0735 129.838 81.0028C129.974 83.4587 128.932 86.1204 127.05 88.117C125.414 89.8547 122.348 91.9314 117.031 91.9553L115.573 92.0008L127.177 105.044ZM124.774 104.825H126.693L115.098 91.796L117.026 91.7386C122.267 91.7137 125.282 89.6738 126.888 87.9686C128.73 86.0132 129.75 83.4121 129.619 81.0093C129.619 77.158 127.026 73.3328 123.456 71.9049C121.505 70.9884 119.01 70.4598 112.015 70.4598H102.281V104.829H103.809V71.5084H112.015C117.229 71.5084 120.303 71.5745 122.906 72.92C126.054 74.5537 128.09 77.7463 128.09 81.0537C128.09 84.0794 126.945 86.3837 124.382 88.5244C121.57 90.4126 119.038 90.7452 114.755 90.7452H112.32L124.774 104.825Z" fill="#4D4B4E"/>
<path d="M65.926 83.3637V75.0393C65.9401 73.8585 66.2976 72.9723 67.0137 72.4068C67.915 71.6875 69.1554 71.6723 69.1468 71.6463H76.1104H76.7279H84.4359L85.3307 70.2705H76.1083H69.1609C69.0915 70.2824 67.2293 70.2543 65.8036 71.3798C64.7214 72.2227 64.1797 73.4577 64.1797 75.0361V83.3615V85.4058V104.932H65.9228V88.2105H84.7143L85.3307 86.8336H65.926V85.4079V83.3637Z" fill="#4D4B4E"/>
<path d="M66.0361 105.044H64.0742V75.0403C64.0742 73.4174 64.6343 72.1586 65.7393 71.2973C66.6006 70.6224 67.7933 70.2183 69.1052 70.1674L69.1507 70.1653L85.5351 70.1631L84.4972 71.7567H69.1691C69.1442 71.7653 69.1085 71.7686 69.0576 71.7751C68.7466 71.8119 67.8009 71.9246 67.0826 72.4966C66.4012 73.0339 66.0502 73.8898 66.0361 75.0435V86.7294H85.5004L84.7886 88.323H66.0361V105.044ZM64.2909 104.825H65.8195V88.1009H84.6467L85.1656 86.9461H65.8184V75.0403C65.8325 73.8172 66.2116 72.9028 66.9472 72.3233C67.6926 71.7285 68.6513 71.6018 69.0012 71.5595L68.9947 71.5389H84.377L85.1277 70.3819H69.167C69.167 70.3819 69.1442 70.383 69.1128 70.3852C67.8475 70.4361 66.6981 70.8196 65.8726 71.4707C64.8228 72.2875 64.292 73.4878 64.292 75.0403L64.2909 104.825Z" fill="#4D4B4E"/>
<path d="M59.4873 104.935H61.3463L44.8504 70.3735H42.9026L26.4023 104.935H28.27L34.0528 92.8765H53.7056L59.4873 104.935ZM34.6498 91.6177L34.7386 91.44L35.4948 90.0306L43.8516 72.2293L52.2572 90.0306L53.0079 91.44L53.0946 91.6177H34.6498Z" fill="#4D4B4E"/>
<path d="M61.5201 105.044H59.4206L59.3913 104.981L53.6377 92.9866H34.1236L28.3397 105.044H26.2305L26.3052 104.886L42.8358 70.2637H44.9201L44.9505 70.3254L61.5201 105.044ZM59.5592 104.825H61.1756L44.7826 70.4825H42.9723L26.5761 104.825H28.2011L33.9828 92.7678H53.7753L53.8046 92.8306L59.5592 104.825ZM53.2683 91.7288H34.4768L34.6426 91.3908L35.3998 89.9793L43.8531 71.9732L52.3572 89.9836L53.2683 91.7288ZM34.8278 91.51H52.9227L52.9119 91.4872L52.1611 90.0843L43.8541 72.4899L35.5959 90.0789L34.8278 91.51Z" fill="#4D4B4E"/>
<path d="M0.71551 121.6H0.753427C1.37093 120.148 3.18118 119.397 4.75526 119.43C6.03576 119.43 7.08443 119.773 7.87743 120.43C8.85568 121.257 9.31934 122.596 9.31934 124.379V129.64H8.79934V124.379C8.79934 122.644 8.32484 121.538 7.57626 120.859C6.80709 120.166 5.77359 119.923 4.75418 119.923C2.25601 119.959 0.714427 121.409 0.714427 123.905V129.642H0.183594V115.733H0.714427L0.71551 121.6Z" fill="#4D4B4E"/>
<path d="M9.43054 129.752H8.69279V124.38C8.69279 122.81 8.29413 121.652 7.50763 120.941C6.84463 120.345 5.89346 120.031 4.75704 120.031C2.29679 120.068 0.827792 121.514 0.827792 123.903V129.749H0.078125V115.624H0.827792V121.216C1.59479 119.915 3.30104 119.318 4.65737 119.318L4.76029 119.32C6.05379 119.32 7.12738 119.665 7.94854 120.344C8.93221 121.176 9.43054 122.534 9.43054 124.38V129.752ZM8.91163 129.532H9.21388V124.38C9.21388 122.6 8.74154 121.301 7.80988 120.513C7.02988 119.869 6.00179 119.541 4.75813 119.541H4.65737C3.25771 119.541 1.47238 120.196 0.855958 121.643L0.828875 121.71H0.610042V115.845H0.295875V129.533H0.610042V123.907C0.610042 121.384 2.15921 119.856 4.75596 119.818C5.94979 119.818 6.94971 120.152 7.65388 120.783C8.48804 121.538 8.91163 122.748 8.91163 124.384V129.532Z" fill="#4D4B4E"/>
<path d="M16.7783 119.43C19.765 119.43 22.0173 121.694 22.0173 124.659C22.0173 127.653 19.765 129.891 16.7783 129.891C13.7828 129.891 11.5273 127.653 11.5273 124.659C11.5273 121.694 13.7828 119.43 16.7783 119.43ZM16.7783 129.394C19.4617 129.394 21.4929 127.367 21.4929 124.659C21.4929 121.955 19.4617 119.923 16.7783 119.923C14.0862 119.923 12.0571 121.955 12.0571 124.659C12.0571 127.367 14.0862 129.394 16.7783 129.394Z" fill="#4D4B4E"/>
<path d="M16.7783 130C13.7222 130 11.418 127.705 11.418 124.662C11.418 121.615 13.7222 119.32 16.7783 119.32C19.8279 119.32 22.1267 121.615 22.1267 124.662C22.1267 127.705 19.8279 130 16.7783 130ZM16.7783 119.541C13.8457 119.541 11.6346 121.742 11.6346 124.664C11.6346 127.582 13.8457 129.783 16.7783 129.783C19.7022 129.783 21.9079 127.583 21.9079 124.664C21.909 121.742 19.7022 119.541 16.7783 119.541ZM16.7783 129.505C14.0245 129.505 11.9477 127.423 11.9477 124.662C11.9477 121.895 14.0245 119.813 16.7783 119.813C19.5278 119.813 21.6024 121.895 21.6024 124.662C21.6024 127.423 19.5278 129.505 16.7783 129.505ZM16.7783 120.033C14.148 120.033 12.1666 122.022 12.1666 124.662C12.1666 127.299 14.148 129.286 16.7783 129.286C19.4032 129.286 21.3836 127.299 21.3836 124.662C21.3836 122.022 19.4043 120.033 16.7783 120.033Z" fill="#4D4B4E"/>
<path d="M25.1401 115.733H25.6677V119.683H28.2255V120.169H25.6677V129.642H25.1401V120.169H22.9453V119.683H25.1401V115.733Z" fill="#4D4B4E"/>
<path d="M25.7772 129.752H25.0308V120.277H22.8359V119.572H25.0308V115.624H25.7772V119.572H28.3349V120.277H25.7772V129.752ZM25.2496 129.532H25.5605V120.059H28.1172V119.789H25.5605V115.842H25.2496V119.789H23.0548V120.059H25.2496V129.532Z" fill="#4D4B4E"/>
<path d="M29.5069 124.719C29.5427 127.969 32.2684 129.416 34.2249 129.394C36.0665 129.394 37.6818 128.453 38.4715 126.766H39.0587C38.1335 128.893 36.2171 129.901 34.2064 129.891C31.1569 129.891 28.9609 127.625 28.9609 124.659V124.68C28.9609 121.694 31.2565 119.43 34.2238 119.43C36.8899 119.43 39.3144 121.354 39.4498 124.433L39.4324 124.719H29.5069ZM38.907 124.231C38.7954 121.825 36.5562 119.829 34.2249 119.923C31.7679 119.923 29.6781 121.713 29.5297 124.231H38.907Z" fill="#4D4B4E"/>
<path d="M34.2368 130H34.2043C31.1601 130 28.8602 127.715 28.8516 124.68V124.662C28.8613 121.615 31.1688 119.32 34.2227 119.32C37.1358 119.32 39.4303 121.515 39.5571 124.43L39.5354 124.826H29.6153C29.7128 127.9 32.3269 129.284 34.1805 129.284H34.2216C36.0687 129.284 37.6201 128.324 38.3708 126.719L38.4001 126.656H39.2256L39.1584 126.808C38.2874 128.806 36.4479 130 34.2368 130ZM34.2216 119.541C31.2891 119.541 29.0736 121.746 29.0682 124.671C29.0726 127.632 31.2327 129.781 34.2043 129.781H34.2357C36.3016 129.781 38.0263 128.7 38.8854 126.875H38.5355C37.736 128.523 36.1283 129.505 34.2206 129.505H34.1772C32.2131 129.505 29.429 128.021 29.3921 124.72L29.39 124.608H39.3252L39.3361 124.428C39.1974 121.223 36.657 119.541 34.2216 119.541ZM39.0176 124.339H29.4106L29.4171 124.226C29.5655 121.71 31.6314 119.814 34.2216 119.814C34.2715 119.812 34.3246 119.812 34.3809 119.812C36.7393 119.812 38.9049 121.874 39.0121 124.226L39.0176 124.339ZM29.6435 124.122H38.7879C38.6167 121.878 36.4858 119.94 34.226 120.033C31.7885 120.033 29.8406 121.782 29.6435 124.122Z" fill="#4D4B4E"/>
<path d="M42.0104 115.733H41.4883V129.642H42.0104V115.733Z" fill="#4D4B4E"/>
<path d="M42.1199 129.752H41.3789V115.624H42.1199V129.752ZM41.5977 129.532H41.9011V115.842H41.5977V129.532Z" fill="#4D4B4E"/>
<path d="M44.891 126.882C44.891 128.471 45.9787 129.394 47.4304 129.394C48.9091 129.394 49.8505 128.266 49.8148 126.973C49.7779 125.603 49.0218 124.94 47.4109 124.579C45.9018 124.155 44.7794 123.722 44.7242 122.01C44.7242 120.358 45.9451 119.43 47.4314 119.43C48.8755 119.452 50.0542 120.317 50.0542 122.029H49.5277C49.5277 120.524 48.4985 119.909 47.4304 119.923C46.0946 119.923 45.1933 120.829 45.2399 122.01C45.3016 123.214 46.0188 123.66 47.4304 124.061C48.7412 124.421 50.2254 124.776 50.3467 126.898C50.4377 128.53 49.1431 129.89 47.4304 129.89C45.7685 129.89 44.2497 128.705 44.3656 126.884L44.891 126.882Z" fill="#4D4B4E"/>
<path d="M47.4305 130C46.4848 130 45.5997 129.634 44.9995 128.992C44.4622 128.421 44.2054 127.688 44.2563 126.876L44.2617 126.773H44.9984V126.882C44.9984 128.343 45.9539 129.286 47.4294 129.286C48.0892 129.286 48.6612 129.056 49.0837 128.625C49.5029 128.194 49.7218 127.609 49.7044 126.977C49.6708 125.711 49.0003 125.048 47.3861 124.688C45.8488 124.257 44.6723 123.787 44.6138 122.015C44.6138 120.406 45.7448 119.325 47.4294 119.325C49.0902 119.349 50.1616 120.412 50.1616 122.033V122.142H49.4163V122.033C49.4163 120.56 48.4066 120.034 47.463 120.034H47.4305C46.7892 120.034 46.2269 120.252 45.8456 120.65C45.5043 121.004 45.3267 121.486 45.3494 122.007C45.4079 123.168 46.1067 123.575 47.4587 123.955L47.5562 123.981C48.8572 124.338 50.3328 124.742 50.4552 126.892C50.5007 127.704 50.2201 128.475 49.6643 129.06C49.0923 129.665 48.2983 130 47.4305 130ZM44.4687 126.994C44.4481 127.702 44.6853 128.341 45.1588 128.845C45.7167 129.442 46.5454 129.781 47.4305 129.781C48.2376 129.781 48.9743 129.473 49.5073 128.909C50.0197 128.366 50.2786 127.654 50.2374 126.904C50.1237 124.91 48.7879 124.544 47.4966 124.191L47.4002 124.165C45.9778 123.765 45.1956 123.303 45.1295 122.016C45.1068 121.435 45.305 120.898 45.6874 120.498C46.111 120.058 46.7285 119.814 47.4294 119.814H47.463C48.4413 119.814 49.5831 120.369 49.634 121.92H49.9428C49.8918 120.196 48.6189 119.558 47.4273 119.541C46.137 119.541 44.8327 120.305 44.8327 122.01C44.8847 123.632 45.9453 124.057 47.4392 124.473C49.1411 124.855 49.8853 125.6 49.9222 126.971C49.9406 127.662 49.699 128.302 49.2397 128.776C48.7814 129.247 48.139 129.505 47.4294 129.505C45.8813 129.505 44.8316 128.499 44.7818 126.994H44.4687Z" fill="#4D4B4E"/>
<path d="M62.9494 129.744C64.3837 129.744 65.6176 129.239 66.7085 128.203L66.7735 128.142L67.95 129.553H68.6964L67.1408 127.727L67.1809 127.676C67.8904 126.66 68.2501 125.584 68.2501 124.449C68.2501 122.783 67.6153 121.449 66.2979 120.364L65.961 120.774C67.0888 121.751 67.6348 122.949 67.6348 124.433C67.6348 125.444 67.3553 126.368 66.793 127.187L66.7291 127.286L60.2269 119.564C59.812 119.062 59.5889 118.717 59.5889 118.252C59.5889 117.53 60.1305 117.116 61.0849 117.116H66.052V116.59H61.0134C59.7654 116.59 58.9367 117.255 58.9367 118.252C58.9367 118.61 59.084 118.979 59.3906 119.378L59.9485 120.11L59.877 120.165C58.3799 121.276 57.6172 122.715 57.6172 124.449C57.6172 125.883 58.1751 127.228 59.1934 128.261C60.1403 129.239 61.4424 129.744 62.9494 129.744ZM58.2369 124.381C58.2369 122.887 58.8739 121.668 60.2389 120.549L60.3071 120.5L60.3634 120.562L66.3792 127.677L66.312 127.728C65.2504 128.744 64.2125 129.186 62.9223 129.186C61.2399 129.186 59.7676 128.327 58.8869 126.83C58.4611 126.098 58.2369 125.245 58.2369 124.381Z" fill="#4D4B4E"/>
<path d="M62.949 129.851C61.4009 129.851 60.0749 129.329 59.1151 128.339C58.0805 127.288 57.5117 125.908 57.5117 124.451C57.5117 122.69 58.2809 121.224 59.7997 120.092L59.3068 119.446C58.9872 119.027 58.8312 118.638 58.8312 118.253C58.8312 117.193 59.7098 116.481 61.0174 116.481H66.1632V117.226H61.0867C60.193 117.226 59.7001 117.591 59.7001 118.253C59.7001 118.678 59.9048 119.005 60.3121 119.495L66.7211 127.104C67.2574 126.314 67.5282 125.414 67.5282 124.433C67.5282 122.979 66.9931 121.811 65.8913 120.857L65.8122 120.788L66.2867 120.212L66.3712 120.28C67.7102 121.385 68.3624 122.747 68.3624 124.451C68.3624 125.598 67.9984 126.697 67.2834 127.724L68.9322 129.662H67.8976L66.7623 128.301C65.6573 129.346 64.4093 129.851 62.949 129.851ZM61.0163 116.702C59.8398 116.702 59.049 117.324 59.049 118.255C59.049 118.59 59.1898 118.936 59.4801 119.316L60.1041 120.135L59.946 120.255C58.4748 121.347 57.7284 122.759 57.7284 124.453C57.7284 125.853 58.2766 127.181 59.2732 128.187C60.1908 129.136 61.4616 129.636 62.9501 129.636C64.3606 129.636 65.5652 129.142 66.6323 128.126L66.784 127.984L68.0027 129.446H68.4599L66.9996 127.728L67.0971 127.61C67.7904 126.624 68.1446 125.557 68.1446 124.453C68.1446 122.855 67.5456 121.568 66.316 120.522L66.1155 120.768C67.2151 121.75 67.7492 122.954 67.7492 124.437C67.7492 125.478 67.4589 126.426 66.8869 127.257L66.7439 127.475L60.1464 119.641C59.7055 119.11 59.4823 118.751 59.4823 118.26C59.4823 117.469 60.0684 117.015 61.0878 117.015H65.9466V116.71H61.0174L61.0163 116.702ZM62.923 129.296C61.2005 129.296 59.6957 128.416 58.7933 126.884C58.3567 126.139 58.127 125.273 58.127 124.38C58.127 122.848 58.776 121.604 60.1681 120.464L60.3219 120.352L60.4432 120.484L66.537 127.695L66.3788 127.812C65.3117 128.836 64.2446 129.296 62.923 129.296ZM60.2916 120.643C58.9666 121.735 58.3459 122.922 58.3459 124.38C58.3459 125.232 58.5669 126.062 58.9818 126.773C59.8431 128.236 61.2806 129.075 62.923 129.075C64.1775 129.075 65.1958 128.639 66.2228 127.66L60.2916 120.643Z" fill="#4D4B4E"/>
<path d="M76.5015 121.479H76.5362C77.4397 119.606 79.1514 119.497 80.0148 119.43V119.943C79.4157 119.963 78.7386 119.998 77.833 120.643C76.6489 121.713 76.5015 122.875 76.5015 124.246V129.64H75.9805V119.68H76.5015V121.479Z" fill="#4D4B4E"/>
<path d="M76.6099 129.752H75.8711V119.572H76.6099V121.114C77.5654 119.506 79.1807 119.383 79.9823 119.326L80.0993 119.317L80.1232 119.431V120.049L80.0159 120.051C79.4743 120.068 78.7993 120.087 77.8937 120.732C76.7063 121.809 76.6067 123.012 76.6067 124.247V129.752H76.6099ZM76.0878 129.532H76.39V124.247C76.39 122.96 76.4962 121.707 77.7593 120.563C78.6704 119.913 79.3529 119.857 79.9065 119.836V119.549C78.9878 119.617 77.4647 119.803 76.6348 121.525L76.6045 121.587H76.39V119.79H76.0878V129.532Z" fill="#4D4B4E"/>
<path d="M80.373 124.719C80.4153 127.969 83.1388 129.416 85.091 129.394C86.9391 129.394 88.55 128.453 89.342 126.766H89.9205C88.9996 128.893 87.0843 129.901 85.0736 129.891C82.0219 129.891 79.8281 127.625 79.8281 124.659V124.68C79.8281 121.694 82.1194 119.43 85.0888 119.43C87.756 119.43 90.1859 121.354 90.3191 124.433L90.2953 124.719H80.373ZM89.771 124.231C89.6615 121.825 87.4255 119.829 85.0931 119.923C82.6318 119.923 80.5431 121.713 80.3958 124.231H89.771Z" fill="#4D4B4E"/>
<path d="M85.1096 130H85.0793C82.0351 130 79.7352 127.715 79.7266 124.68V124.662C79.7363 121.615 82.0449 119.32 85.0977 119.32C88.0162 119.32 90.3118 121.515 90.4386 124.43L90.4039 124.826H80.4914C80.5921 127.9 83.2095 129.284 85.0587 129.284H85.0988C86.9459 129.284 88.4994 128.324 89.2523 126.719L89.2816 126.656H90.0951L90.028 126.808C89.1602 128.806 87.3218 130 85.1096 130ZM85.0956 119.541C82.163 119.541 79.9476 121.746 79.9432 124.671C79.9476 127.632 82.1077 129.781 85.0782 129.781H85.1086C87.1756 129.781 88.8981 128.7 89.755 126.875H89.4148C88.6131 128.523 87.0044 129.505 85.0956 129.505H85.0544C83.0914 129.505 80.3105 128.021 80.2661 124.72L80.265 124.608H90.2002L90.2176 124.424C90.0767 121.223 87.5363 119.541 85.0956 119.541ZM89.8893 124.339H80.2834L80.2899 124.226C80.4361 121.71 82.5031 119.814 85.0977 119.814C85.1486 119.812 85.2061 119.812 85.2581 119.812C87.6154 119.812 89.7777 121.874 89.885 124.226L89.8893 124.339ZM80.5152 124.122H89.6575C89.4863 121.877 87.3706 119.938 85.0977 120.033C82.6591 120.033 80.7091 121.782 80.5152 124.122Z" fill="#4D4B4E"/>
<path d="M92.3121 126.882C92.3121 128.471 93.4063 129.394 94.8558 129.394C96.341 129.394 97.277 128.266 97.2445 126.973C97.2023 125.603 96.4537 124.94 94.8352 124.579C93.3315 124.155 92.1994 123.722 92.1496 122.01C92.1496 120.358 93.3705 119.43 94.8558 119.43C96.3053 119.452 97.4861 120.317 97.4861 122.029H96.9628C96.9628 120.524 95.9272 119.909 94.8568 119.923C93.5222 119.923 92.6219 120.829 92.675 122.01C92.7368 123.214 93.4409 123.66 94.8568 124.061C96.1774 124.421 97.6627 124.776 97.7688 126.898C97.8631 128.53 96.5685 129.89 94.8568 129.89C93.208 129.89 91.6783 128.705 91.791 126.884L92.3121 126.882Z" fill="#4D4B4E"/>
<path d="M94.856 130C93.9146 130 93.0284 129.634 92.4294 128.992C91.8899 128.419 91.632 127.688 91.6818 126.876L91.6884 126.773H92.4261V126.882C92.4261 128.343 93.3783 129.286 94.8571 129.286C95.5179 129.286 96.0932 129.058 96.5124 128.627C96.9328 128.197 97.1527 127.611 97.1364 126.978C97.0985 125.711 96.4247 125.048 94.8116 124.688C93.2711 124.255 92.0935 123.785 92.0404 122.016C92.0404 120.406 93.1714 119.325 94.856 119.325C96.5211 119.35 97.5958 120.415 97.5958 122.033V122.144H96.8504V122.033C96.8504 120.561 95.8364 120.035 94.8863 120.035H94.8549C94.2125 120.035 93.6514 120.253 93.27 120.651C92.9309 121.007 92.7565 121.486 92.7814 122.007C92.8399 123.173 93.5333 123.577 94.8809 123.956L94.9741 123.981C96.2828 124.338 97.7648 124.742 97.8742 126.893C97.9208 127.703 97.6413 128.472 97.0866 129.057C96.5168 129.665 95.7205 130 94.856 130ZM91.892 126.994C91.8714 127.701 92.1109 128.339 92.5864 128.845C93.1487 129.442 93.9731 129.781 94.856 129.781C95.662 129.781 96.4008 129.471 96.9317 128.907C97.4441 128.365 97.7019 127.653 97.6575 126.904C97.5579 124.908 96.2167 124.542 94.921 124.188L94.8279 124.165C93.4087 123.767 92.6298 123.305 92.5648 122.016C92.5399 121.437 92.7338 120.9 93.1162 120.5C93.5376 120.058 94.1551 119.814 94.856 119.814H94.8885C95.8722 119.814 97.0183 120.369 97.0693 121.92H97.3759C97.3228 120.196 96.0477 119.558 94.8539 119.541C93.5647 119.541 92.2582 120.305 92.2582 122.01C92.308 123.629 93.3697 124.052 94.8658 124.473C96.5883 124.857 97.3108 125.58 97.3531 126.971C97.3715 127.662 97.1278 128.304 96.6663 128.777C96.2091 129.247 95.5656 129.505 94.8549 129.505C93.3047 129.505 92.2528 128.499 92.204 126.994H91.892Z" fill="#4D4B4E"/>
<path d="M104.918 119.43C107.897 119.43 110.161 121.694 110.161 124.659C110.161 127.653 107.897 129.891 104.918 129.891C101.919 129.891 99.668 127.653 99.668 124.659C99.668 121.694 101.919 119.43 104.918 119.43ZM104.918 129.394C107.601 129.394 109.631 127.367 109.631 124.659C109.631 121.955 107.601 119.923 104.918 119.923C102.23 119.923 100.198 121.955 100.198 124.659C100.196 127.367 102.228 129.394 104.918 129.394Z" fill="#4D4B4E"/>
<path d="M104.92 130C101.865 130 99.5625 127.705 99.5625 124.662C99.5625 121.615 101.865 119.32 104.92 119.32C107.97 119.32 110.271 121.615 110.271 124.662C110.271 127.705 107.97 130 104.92 130ZM104.92 119.541C101.989 119.541 99.7803 121.742 99.7803 124.664C99.7803 127.582 101.989 129.783 104.92 129.783C107.846 129.783 110.053 127.583 110.053 124.664C110.053 121.742 107.846 119.541 104.92 119.541ZM104.92 129.505C102.167 129.505 100.089 127.423 100.089 124.662C100.089 121.895 102.167 119.813 104.92 119.813C107.668 119.813 109.739 121.895 109.739 124.662C109.739 127.423 107.668 129.505 104.92 129.505ZM104.92 120.033C102.289 120.033 100.307 122.022 100.307 124.662C100.307 127.299 102.289 129.286 104.92 129.286C107.543 129.286 109.522 127.299 109.522 124.662C109.522 122.022 107.542 120.033 104.92 120.033Z" fill="#4D4B4E"/>
<path d="M112.948 121.479H112.983C113.877 119.606 115.592 119.497 116.462 119.43V119.943C115.854 119.963 115.18 119.998 114.278 120.643C113.091 121.713 112.947 122.875 112.947 124.246V129.64H112.418V119.68H112.947L112.948 121.479Z" fill="#4D4B4E"/>
<path d="M113.055 129.752H112.309V119.572H113.055V121.112C114.003 119.506 115.624 119.383 116.427 119.326L116.543 119.317L116.566 119.431V120.049L116.46 120.051C115.916 120.068 115.239 120.087 114.338 120.732C113.15 121.807 113.051 123.008 113.051 124.247V129.752H113.055ZM112.527 129.532H112.837V124.247C112.837 122.958 112.941 121.703 114.206 120.563C115.112 119.913 115.798 119.856 116.352 119.836V119.547C115.433 119.617 113.903 119.802 113.08 121.523L113.051 121.587H112.837V119.79H112.527V129.532Z" fill="#4D4B4E"/>
<path d="M119.72 115.733H120.239V119.683H122.799V120.169H120.239V129.642H119.72V120.169H117.516V119.683H119.72V115.733Z" fill="#4D4B4E"/>
<path d="M120.349 129.752H119.61V120.277H117.406V119.572H119.61V115.624H120.349V119.572H122.906V120.277H120.349V129.752ZM119.828 129.532H120.13V120.059H122.686V119.789H120.13V115.842H119.828V119.789H117.624V120.059H119.828V129.532Z" fill="#4D4B4E"/>
<path d="M124.372 126.882C124.372 128.471 125.462 129.394 126.909 129.394C128.397 129.394 129.336 128.266 129.3 126.973C129.26 125.603 128.511 124.94 126.892 124.579C125.394 124.155 124.257 123.722 124.201 122.01C124.201 120.358 125.424 119.43 126.909 119.43C128.359 119.452 129.548 120.317 129.548 122.029H129.023C129.023 120.524 127.988 119.909 126.912 119.923C125.582 119.923 124.673 120.829 124.734 122.01C124.789 123.214 125.504 123.66 126.912 124.061C128.226 124.421 129.717 124.776 129.822 126.898C129.928 128.53 128.626 129.89 126.912 129.89C125.264 129.89 123.733 128.705 123.854 126.884L124.372 126.882Z" fill="#4D4B4E"/>
<path d="M126.908 130C125.967 130 125.082 129.632 124.482 128.99C123.944 128.417 123.69 127.686 123.741 126.876L123.747 126.773H124.48V126.882C124.48 128.344 125.434 129.286 126.908 129.286C127.57 129.286 128.147 129.056 128.567 128.623C128.986 128.194 129.206 127.607 129.188 126.976C129.151 125.709 128.48 125.046 126.865 124.687C125.327 124.254 124.148 123.781 124.089 122.014C124.089 120.405 125.221 119.324 126.907 119.324C128.577 119.348 129.654 120.411 129.654 122.032V122.141H128.908V122.032C128.908 120.559 127.892 120.033 126.943 120.033H126.91C126.266 120.033 125.703 120.253 125.32 120.655C124.982 121.012 124.81 121.49 124.838 122.005C124.893 123.167 125.587 123.574 126.938 123.954L127.035 123.98C128.341 124.337 129.822 124.744 129.928 126.892C129.981 127.696 129.706 128.464 129.155 129.05C128.578 129.662 127.783 130 126.908 130ZM123.954 126.994C123.931 127.7 124.17 128.338 124.643 128.843C125.203 129.44 126.028 129.781 126.91 129.781C127.722 129.781 128.465 129.469 128.998 128.9C129.506 128.359 129.76 127.651 129.711 126.905C129.614 124.914 128.275 124.548 126.98 124.192L126.882 124.167C125.462 123.768 124.684 123.306 124.626 122.018C124.596 121.445 124.785 120.908 125.166 120.507C125.59 120.06 126.21 119.814 126.91 119.814H126.945C127.93 119.814 129.078 120.369 129.13 121.92H129.436C129.383 120.196 128.104 119.558 126.91 119.541C125.618 119.541 124.311 120.305 124.311 122.01C124.367 123.629 125.43 124.052 126.924 124.473C128.648 124.857 129.37 125.58 129.41 126.971C129.43 127.661 129.187 128.301 128.728 128.774C128.27 129.245 127.625 129.505 126.91 129.505C125.365 129.505 124.314 128.5 124.266 126.994H123.954Z" fill="#4D4B4E"/>
</g>
<defs>
<clipPath id="clip0_1198_747">
<rect width="130" height="130" fill="white"/>
</clipPath>
</defs>
</svg>
